# This file uses centimeters as units for non-parametric coordinates.

mtllib lighting.mtl
g default
v 0.309011 2.684026 -0.844675
v 1.936288 8.314570 -0.844675
v 2.355144 5.833679 -0.844675
v 1.132901 5.970467 -0.844675
v -0.112189 8.220026 -0.844675
v -0.661380 5.321850 -0.844675
v 0.474511 5.005428 -0.844675
v -0.495869 6.195276 -0.844675
v 0.309011 2.684026 -0.471982
v 2.355144 5.833679 -0.471982
v 1.132901 5.970467 -0.471982
v 0.474511 5.005428 -0.471982
v -0.495869 6.195276 -0.471982
v -0.661380 5.321850 -0.471982
v 1.936288 8.314570 -0.471982
v -0.112189 8.220026 -0.471982
vt 0.564373 0.001990
vt 0.710077 0.226275
vt 0.623042 0.236016
vt 0.576158 0.167296
vt 0.507058 0.252024
vt 0.495272 0.189828
vt 0.680250 0.402938
vt 0.534379 0.396206
vt 0.786554 0.402938
vt 0.798339 0.237632
vt 0.845222 0.168912
vt 0.932258 0.178653
vt 0.717452 0.215100
vt 0.729238 0.152904
vt 0.756560 0.008723
vt 0.902431 0.001990
vt 0.001992 0.997045
vt 0.001992 0.772759
vt 0.028531 0.772759
vt 0.028531 0.997045
vt 0.769328 0.702013
vt 0.769328 0.789049
vt 0.742789 0.789049
vt 0.742789 0.702013
vt 0.419263 0.938065
vt 0.419263 0.772759
vt 0.445802 0.772759
vt 0.445802 0.938065
vt 0.035319 0.834956
vt 0.035319 0.772759
vt 0.061858 0.772759
vt 0.061858 0.834956
vt 0.775921 0.782899
vt 0.775921 0.702013
vt 0.802460 0.702013
vt 0.802460 0.782899
vt 0.214623 0.939682
vt 0.214623 0.772759
vt 0.241162 0.772759
vt 0.241162 0.939682
vt 0.478934 0.759010
vt 0.478934 0.904881
vt 0.452395 0.904881
vt 0.452395 0.759010
vt 0.035319 0.979137
vt 0.061858 0.979137
vn 0.000000 0.000000 1.000000
vn 0.000000 0.000000 1.000000
vn -0.000000 -0.000000 1.000000
vn 0.000000 -0.000000 1.000000
vn -0.000000 -0.000000 1.000000
vn 0.000000 -0.000000 1.000000
vn -0.000000 -0.000000 1.000000
vn -0.000000 -0.000000 1.000000
vn 0.000000 -0.000000 -1.000000
vn 0.000000 -0.000000 -1.000000
vn 0.000000 0.000000 -1.000000
vn 0.000000 -0.000000 -1.000000
vn 0.000000 -0.000000 -1.000000
vn 0.000000 -0.000000 -1.000000
vn 0.000000 0.000000 -1.000000
vn 0.000000 0.000000 -1.000000
vn 0.838583 -0.544775 0.000000
vn 0.838583 -0.544775 0.000000
vn 0.838583 -0.544775 0.000000
vn 0.838583 -0.544775 0.000000
vn 0.111221 0.993796 -0.000000
vn 0.111221 0.993796 -0.000000
vn 0.111221 0.993796 -0.000000
vn 0.111221 0.993796 -0.000000
vn -0.938509 -0.345255 0.000000
vn -0.997468 0.071112 -0.000000
vn -0.997468 0.071112 -0.000000
vn -0.938509 -0.345255 0.000000
vn -0.982515 0.186182 -0.000000
vn -0.774956 -0.632015 0.000000
vn -0.774956 -0.632015 0.000000
vn -0.982515 0.186182 -0.000000
vn 0.945984 -0.324214 0.000000
vn 0.945984 -0.324214 0.000000
vn 0.945984 -0.324214 0.000000
vn 0.945984 -0.324214 0.000000
vn -0.046104 0.998937 -0.000000
vn -0.656951 0.753934 -0.000000
vn -0.656951 0.753934 -0.000000
vn -0.046104 0.998937 -0.000000
s 1
g polySurface1 pPlane2
usemtl initialShadingGroup
f 9/1/1 10/2/2 11/3/3 12/4/4
f 12/4/4 11/3/3 13/5/5 14/6/6
f 13/5/5 11/3/3 15/7/7 16/8/8
s 2
f 1/9/9 7/10/10 4/11/11 3/12/12
f 7/10/10 6/13/13 8/14/14 4/11/11
f 8/14/14 5/15/15 2/16/16 4/11/11
s off
f 1/17/17 3/18/18 10/19/19 9/20/20
f 3/21/21 4/22/22 11/23/23 10/24/24
s 3
f 7/25/25 1/26/26 9/27/27 12/28/28
f 8/29/29 6/30/30 14/31/31 13/32/32
f 6/33/30 7/34/25 12/35/28 14/36/31
s off
f 4/37/33 2/38/34 15/39/35 11/40/36
s 3
f 2/41/37 5/42/38 16/43/39 15/44/40
f 5/45/38 8/29/29 13/32/32 16/46/39
